<svg width="45" height="24" viewBox="0 0 45 24" fill="none" xmlns="http://www.w3.org/2000/svg">
<path d="M7.17471 2.26973C7.40424 2.26973 7.59975 2.35048 7.76127 2.512C7.92279 2.67351 8.00355 2.86903 8.00355 3.09856V8.54335C8.00355 8.68786 7.99504 8.82812 7.97804 8.96414C7.96104 9.09165 7.93979 9.21916 7.91429 9.34667C7.84628 9.6017 7.75702 9.83547 7.64651 10.048C7.5275 10.269 7.38298 10.4645 7.21297 10.6346C7.03445 10.8131 6.83893 10.9618 6.62641 11.0808C6.5159 11.1404 6.40114 11.1956 6.28212 11.2466C6.16311 11.2891 6.03985 11.3231 5.91234 11.3486C5.77632 11.3826 5.63606 11.4081 5.49155 11.4251C5.35553 11.4421 5.21102 11.4506 5.058 11.4506C4.78598 11.4506 4.50545 11.4166 4.21642 11.3486C4.08891 11.3231 3.96565 11.2891 3.84663 11.2466C3.72762 11.1956 3.60861 11.1404 3.4896 11.0808C3.37909 11.0128 3.27708 10.9448 3.18357 10.8768C3.09006 10.8003 2.99655 10.7196 2.90304 10.6346C2.73302 10.4475 2.59276 10.252 2.48225 10.048C2.41424 9.93748 2.35899 9.82272 2.31648 9.70371C2.28248 9.5847 2.24848 9.46569 2.21447 9.34667C2.15497 9.10865 2.12521 8.84088 2.12521 8.54335V8.46684C2.12521 8.21181 2.21447 7.99504 2.39299 7.81652C2.58001 7.62951 2.80103 7.54025 3.05606 7.54875C3.31108 7.54875 3.52785 7.63801 3.70637 7.81652C3.88489 8.01204 3.97415 8.22882 3.97415 8.46684V8.47959C3.97415 8.67511 3.99965 8.84938 4.05065 9.00239C4.06766 9.0874 4.09316 9.16391 4.12716 9.23191C4.16967 9.29142 4.21217 9.35518 4.25467 9.42318C4.34818 9.5422 4.45869 9.6272 4.58621 9.67821C4.71372 9.73771 4.87099 9.76747 5.058 9.76747C5.25352 9.76747 5.41504 9.73771 5.54255 9.67821C5.67006 9.6272 5.78058 9.5422 5.87408 9.42318C5.91659 9.35518 5.95484 9.29142 5.98885 9.23191C6.03135 9.16391 6.0611 9.0874 6.0781 9.00239C6.12911 8.84938 6.15461 8.67086 6.15461 8.46684V4.0549C6.15461 4.0209 6.14186 3.99115 6.11636 3.96564C6.09086 3.94014 6.0611 3.92739 6.0271 3.92739H3.64261C3.41309 3.92739 3.21757 3.84663 3.05606 3.68512C2.90304 3.5406 2.81803 3.34933 2.80103 3.11131C2.80103 2.87328 2.88179 2.67351 3.0433 2.512C3.11981 2.44399 3.20482 2.38874 3.29833 2.34623C3.40034 2.29523 3.51085 2.26973 3.62986 2.26973H7.17471Z" fill="#171717"/>
<path d="M14.6074 3.49385C14.7264 3.73187 14.8157 3.96989 14.8752 4.20792C14.9007 4.32693 14.9219 4.45444 14.9389 4.59045C14.9559 4.71797 14.9644 4.85398 14.9644 4.9985V8.54335C14.9644 8.68786 14.9559 8.82812 14.9389 8.96414C14.9219 9.09165 14.9007 9.21916 14.8752 9.34667C14.8072 9.6017 14.7179 9.83547 14.6074 10.048C14.4884 10.269 14.3439 10.4645 14.1739 10.6346C13.9953 10.8131 13.7998 10.9618 13.5873 11.0808C13.4768 11.1404 13.362 11.1956 13.243 11.2466C13.124 11.2891 13.0007 11.3231 12.8732 11.3486C12.7372 11.3826 12.597 11.4081 12.4524 11.4251C12.3164 11.4421 12.1719 11.4506 12.0189 11.4506C11.7469 11.4506 11.4663 11.4166 11.1773 11.3486C11.0498 11.3231 10.9265 11.2891 10.8075 11.2466C10.6885 11.1956 10.5695 11.1404 10.4505 11.0808C10.34 11.0128 10.238 10.9448 10.1445 10.8768C10.051 10.8003 9.95744 10.7196 9.86393 10.6346C9.69392 10.4475 9.55365 10.252 9.44314 10.048C9.37514 9.93748 9.31988 9.82272 9.27738 9.70371C9.24337 9.5847 9.20937 9.46569 9.17537 9.34667C9.11586 9.10865 9.08611 8.84088 9.08611 8.54335V4.9985C9.08611 4.70097 9.11586 4.43744 9.17537 4.20792C9.20937 4.0804 9.24337 3.96139 9.27738 3.85088C9.31988 3.73187 9.37514 3.61286 9.44314 3.49385C9.55365 3.28983 9.69392 3.09431 9.86393 2.90729C9.95744 2.82228 10.051 2.74577 10.1445 2.67777C10.238 2.60126 10.34 2.53325 10.4505 2.47374C10.663 2.35473 10.9053 2.26122 11.1773 2.19322C11.4663 2.12521 11.7469 2.09121 12.0189 2.09121C12.1719 2.09121 12.3164 2.09971 12.4524 2.11671C12.597 2.13371 12.7372 2.15921 12.8732 2.19322C13.1453 2.26122 13.3833 2.35473 13.5873 2.47374C13.7063 2.53325 13.8126 2.60126 13.9061 2.67777C13.9996 2.74577 14.0889 2.82228 14.1739 2.90729C14.3439 3.08581 14.4884 3.28133 14.6074 3.49385ZM10.935 5.075V8.46684C10.935 8.67086 10.9605 8.84938 11.0115 9.00239C11.0285 9.0874 11.0541 9.16391 11.0881 9.23191C11.1306 9.29142 11.1731 9.35518 11.2156 9.42318C11.3091 9.5422 11.4196 9.6272 11.5471 9.67821C11.6746 9.73771 11.8319 9.76747 12.0189 9.76747C12.2144 9.76747 12.3759 9.73771 12.5034 9.67821C12.631 9.6272 12.7415 9.5422 12.835 9.42318C12.8775 9.35518 12.9157 9.29142 12.9497 9.23191C12.9922 9.16391 13.022 9.0874 13.039 9.00239C13.09 8.84938 13.1155 8.67086 13.1155 8.46684V5.075C13.1155 4.88798 13.09 4.70947 13.039 4.53945C13.005 4.40344 12.937 4.26317 12.835 4.11866C12.7415 3.99965 12.631 3.91464 12.5034 3.86363C12.3759 3.80413 12.2144 3.77437 12.0189 3.77437C11.8319 3.77437 11.6746 3.80413 11.5471 3.86363C11.4196 3.91464 11.3091 3.99965 11.2156 4.11866C11.1136 4.26317 11.0456 4.40344 11.0115 4.53945C10.9605 4.70947 10.935 4.88798 10.935 5.075Z" fill="#171717"/>
<path d="M21.3815 3.49385C21.5005 3.73187 21.5898 3.96989 21.6493 4.20792C21.6748 4.32693 21.696 4.45444 21.713 4.59045C21.73 4.71797 21.7385 4.85398 21.7385 4.9985V10.3413C21.7385 10.6048 21.6493 10.8258 21.4708 11.0043C21.2752 11.1829 21.0542 11.2721 20.8077 11.2721C20.5527 11.2721 20.3359 11.1829 20.1574 11.0043C19.9789 10.8258 19.8896 10.6048 19.8896 10.3413V8.53059C19.8896 8.49659 19.8769 8.46684 19.8514 8.44134C19.8259 8.41583 19.7961 8.40308 19.7621 8.40308H17.8367C17.8027 8.40308 17.7729 8.41583 17.7474 8.44134C17.7219 8.45834 17.7091 8.48809 17.7091 8.53059V10.3413C17.7091 10.6048 17.6199 10.8258 17.4414 11.0043C17.2629 11.1829 17.0461 11.2721 16.7911 11.2721C16.5275 11.2721 16.3065 11.1829 16.128 11.0043C15.9495 10.8258 15.8602 10.6048 15.8602 10.3413V4.9985C15.8602 4.70097 15.89 4.43744 15.9495 4.20792C15.9835 4.0804 16.0175 3.96139 16.0515 3.85088C16.094 3.73187 16.1492 3.61286 16.2172 3.49385C16.3278 3.28983 16.468 3.09431 16.638 2.90729C16.7316 2.82228 16.8251 2.74577 16.9186 2.67777C17.0121 2.60126 17.1141 2.53325 17.2246 2.47374C17.4371 2.35473 17.6794 2.26122 17.9514 2.19322C18.2404 2.12521 18.521 2.09121 18.793 2.09121C18.946 2.09121 19.0905 2.09971 19.2265 2.11671C19.3711 2.13371 19.5113 2.15921 19.6473 2.19322C19.9194 2.26122 20.1574 2.35473 20.3614 2.47374C20.4804 2.53325 20.5867 2.60126 20.6802 2.67777C20.7737 2.74577 20.863 2.82228 20.948 2.90729C21.118 3.08581 21.2625 3.28133 21.3815 3.49385ZM17.8367 6.77092H19.7621C19.7961 6.77092 19.8259 6.75817 19.8514 6.73267C19.8599 6.71567 19.8684 6.70291 19.8769 6.69441C19.8854 6.67741 19.8896 6.66041 19.8896 6.64341V5.075C19.8896 4.88798 19.8641 4.70947 19.8131 4.53945C19.7791 4.40344 19.7111 4.26317 19.6091 4.11866C19.5156 3.99965 19.4051 3.91464 19.2776 3.86363C19.15 3.80413 18.9885 3.77437 18.793 3.77437C18.606 3.77437 18.4487 3.80413 18.3212 3.86363C18.1937 3.91464 18.0832 3.99965 17.9897 4.11866C17.8877 4.26317 17.8197 4.40344 17.7857 4.53945C17.7346 4.70947 17.7091 4.88798 17.7091 5.075V6.64341C17.7091 6.67741 17.7219 6.70716 17.7474 6.73267C17.7729 6.75817 17.8027 6.77092 17.8367 6.77092ZM20.7439 0C20.88 0 20.999 0.0595059 21.101 0.178518C21.203 0.280528 21.2455 0.408041 21.2285 0.561056L21.2157 0.739574C21.2072 0.773577 21.203 0.80758 21.203 0.841584C21.1605 0.994599 21.1095 1.12636 21.05 1.23687C21.016 1.29638 20.982 1.35163 20.948 1.40264C20.914 1.45364 20.8757 1.5004 20.8332 1.5429C20.6887 1.68742 20.5399 1.78943 20.3869 1.84893C20.2169 1.91694 20.0341 1.94244 19.8386 1.92544C19.7876 1.92544 19.7366 1.92544 19.6856 1.92544C19.6346 1.91694 19.5878 1.90844 19.5453 1.89994L19.2776 1.82343C19.235 1.78943 19.1883 1.76818 19.1373 1.75967C19.1203 1.74267 19.099 1.72992 19.0735 1.72142C19.048 1.70442 19.0225 1.68742 18.997 1.67042L18.7165 1.53015L18.5762 1.4664C18.5507 1.44939 18.5252 1.43664 18.4997 1.42814C18.4742 1.41964 18.453 1.40689 18.436 1.38989C18.4105 1.38139 18.385 1.37289 18.3595 1.36439C18.3425 1.35588 18.3212 1.34738 18.2957 1.33888C18.2447 1.32188 18.2064 1.31338 18.1809 1.31338C18.1639 1.30488 18.1342 1.30063 18.0917 1.30063C18.0067 1.29213 17.9302 1.32188 17.8622 1.38989C17.8112 1.43239 17.7772 1.52165 17.7602 1.65766C17.7602 1.77668 17.7049 1.87869 17.5944 1.96369C17.4924 2.0402 17.3734 2.07846 17.2374 2.07846C17.0928 2.06145 16.9738 2.00195 16.8803 1.89994C16.7868 1.78943 16.7443 1.66191 16.7528 1.5174L16.7783 1.33888C16.7783 1.27938 16.7826 1.24537 16.7911 1.23687C16.8166 1.10086 16.8633 0.969096 16.9313 0.841584C16.9993 0.70557 17.0716 0.60356 17.1481 0.535553C17.2841 0.39954 17.4371 0.29753 17.6071 0.229523C17.7687 0.170017 17.9472 0.144515 18.1427 0.153015C18.1937 0.153015 18.2447 0.157266 18.2957 0.165767C18.3467 0.165767 18.3935 0.170017 18.436 0.178518C18.487 0.19552 18.5337 0.208271 18.5762 0.216772C18.6187 0.225272 18.6612 0.238024 18.7037 0.255026C18.7207 0.272027 18.742 0.284778 18.7675 0.293279C18.793 0.293279 18.8185 0.30178 18.844 0.318782C18.8695 0.335783 18.8908 0.348535 18.9078 0.357035C18.9333 0.365537 18.963 0.378288 18.997 0.395289L19.0863 0.446295L19.201 0.510051L19.4051 0.612061C19.4731 0.646064 19.5198 0.671567 19.5453 0.688568C19.5708 0.697069 19.5963 0.70557 19.6218 0.714071C19.6473 0.722572 19.6686 0.731073 19.6856 0.739574C19.7366 0.756575 19.7749 0.765076 19.8004 0.765076C19.8174 0.773577 19.8471 0.777828 19.8896 0.777828C19.9916 0.777828 20.0681 0.748075 20.1191 0.688568C20.1871 0.637564 20.2211 0.548305 20.2211 0.420792C20.2211 0.352785 20.2381 0.29753 20.2722 0.255026C20.3062 0.20402 20.3444 0.157266 20.3869 0.114761C20.4889 0.0382538 20.6079 0 20.7439 0Z" fill="#171717"/>
<path d="M28.1556 3.49385C28.2746 3.73187 28.3639 3.96989 28.4234 4.20792C28.4489 4.32693 28.4701 4.45444 28.4872 4.59045C28.5042 4.71797 28.5127 4.85398 28.5127 4.9985V8.54335C28.5127 8.68786 28.5042 8.82812 28.4872 8.96414C28.4701 9.09165 28.4489 9.21916 28.4234 9.34667C28.3554 9.6017 28.2661 9.83547 28.1556 10.048C28.0366 10.269 27.8921 10.4645 27.7221 10.6346C27.5436 10.8131 27.348 10.9618 27.1355 11.0808C27.025 11.1404 26.9102 11.1956 26.7912 11.2466C26.6722 11.2891 26.549 11.3231 26.4214 11.3486C26.2854 11.3826 26.1452 11.4081 26.0007 11.4251C25.8646 11.4421 25.7201 11.4506 25.5671 11.4506C25.2951 11.4506 25.0146 11.4166 24.7255 11.3486C24.598 11.3231 24.4748 11.2891 24.3557 11.2466C24.2367 11.1956 24.1177 11.1404 23.9987 11.0808C23.8882 11.0128 23.7862 10.9448 23.6927 10.8768C23.5992 10.8003 23.5057 10.7196 23.4121 10.6346C23.2421 10.4475 23.1019 10.252 22.9914 10.048C22.9233 9.93748 22.8681 9.82272 22.8256 9.70371C22.7916 9.5847 22.7576 9.46569 22.7236 9.34667C22.6641 9.10865 22.6343 8.84088 22.6343 8.54335V4.9985C22.6343 4.70097 22.6641 4.43744 22.7236 4.20792C22.7576 4.0804 22.7916 3.96139 22.8256 3.85088C22.8681 3.73187 22.9233 3.61286 22.9914 3.49385C23.1019 3.28983 23.2421 3.09431 23.4121 2.90729C23.5057 2.82228 23.5992 2.74577 23.6927 2.67777C23.7862 2.60126 23.8882 2.53325 23.9987 2.47374C24.2112 2.35473 24.4535 2.26122 24.7255 2.19322C25.0146 2.12521 25.2951 2.09121 25.5671 2.09121C25.7201 2.09121 25.8646 2.09971 26.0007 2.11671C26.1452 2.13371 26.2854 2.15921 26.4214 2.19322C26.6935 2.26122 26.9315 2.35473 27.1355 2.47374C27.2545 2.53325 27.3608 2.60126 27.4543 2.67777C27.5478 2.74577 27.6371 2.82228 27.7221 2.90729C27.8921 3.08581 28.0366 3.28133 28.1556 3.49385ZM24.4833 5.075V8.46684C24.4833 8.67086 24.5088 8.84938 24.5598 9.00239C24.5768 9.0874 24.6023 9.16391 24.6363 9.23191C24.6788 9.29142 24.7213 9.35518 24.7638 9.42318C24.8573 9.5422 24.9678 9.6272 25.0953 9.67821C25.2228 9.73771 25.3801 9.76747 25.5671 9.76747C25.7626 9.76747 25.9241 9.73771 26.0517 9.67821C26.1792 9.6272 26.2897 9.5422 26.3832 9.42318C26.4257 9.35518 26.4639 9.29142 26.498 9.23191C26.5405 9.16391 26.5702 9.0874 26.5872 9.00239C26.6382 8.84938 26.6637 8.67086 26.6637 8.46684V5.075C26.6637 4.88798 26.6382 4.70947 26.5872 4.53945C26.5532 4.40344 26.4852 4.26317 26.3832 4.11866C26.2897 3.99965 26.1792 3.91464 26.0517 3.86363C25.9241 3.80413 25.7626 3.77437 25.5671 3.77437C25.3801 3.77437 25.2228 3.80413 25.0953 3.86363C24.9678 3.91464 24.8573 3.99965 24.7638 4.11866C24.6618 4.26317 24.5938 4.40344 24.5598 4.53945C24.5088 4.70947 24.4833 4.88798 24.4833 5.075Z" fill="#171717"/>
<path d="M0 14.6385C0 12.291 1.90298 10.388 4.25042 10.388H39.8422C42.1896 10.388 44.0926 12.291 44.0926 14.6385V19.7496C44.0926 22.097 42.1896 24 39.8422 24H4.25042C1.90297 24 0 22.097 0 19.7496V14.6385Z" fill="#171717"/>
<path d="M7.30918 17.397C7.61521 17.7455 7.80223 18.1578 7.87024 18.6339C7.91274 18.8719 7.92124 19.1056 7.89574 19.3352C7.87024 19.5647 7.82348 19.79 7.75548 20.011C7.61946 20.453 7.37719 20.8271 7.02865 21.1331C6.69712 21.4391 6.30183 21.6516 5.84279 21.7707C5.34974 21.8897 4.86519 21.9067 4.38914 21.8217C3.89609 21.7452 3.4498 21.5581 3.05026 21.2606C2.88024 21.1416 2.72298 20.9886 2.57846 20.8016C2.44245 20.623 2.33194 20.4445 2.24693 20.266C2.17892 20.1215 2.15342 19.977 2.17042 19.8325C2.18742 19.6795 2.23418 19.5434 2.31069 19.4244C2.38719 19.3054 2.4892 19.2077 2.61672 19.1311C2.75273 19.0546 2.90149 19.0164 3.06301 19.0164C3.23303 19.0164 3.39029 19.0631 3.53481 19.1567C3.68782 19.2502 3.79408 19.3734 3.85359 19.5264C3.87059 19.5604 3.88759 19.5944 3.90459 19.6284C3.9301 19.654 3.9556 19.6837 3.9811 19.7177C3.9981 19.7602 4.01936 19.7985 4.04486 19.8325C4.07886 19.858 4.11286 19.8877 4.14687 19.9217C4.28288 20.0407 4.4359 20.1257 4.60591 20.1768C4.78443 20.2278 4.96295 20.2448 5.14147 20.2278C5.31998 20.2108 5.48575 20.1555 5.63877 20.062C5.79178 19.9685 5.91079 19.8367 5.9958 19.6667C6.09781 19.4542 6.13607 19.2629 6.11056 19.0929C6.09356 18.9229 6.03405 18.7656 5.93204 18.6211C5.83003 18.4766 5.69402 18.3576 5.524 18.2641C5.36249 18.1621 5.19247 18.0813 5.01395 18.0218C4.72493 17.9198 4.43165 17.8135 4.13412 17.703C3.83659 17.5925 3.56031 17.4565 3.30528 17.295C3.04176 17.125 2.81224 16.9294 2.61672 16.7084C2.4297 16.4789 2.29368 16.1941 2.20868 15.8541C2.10667 15.412 2.09817 14.9955 2.18317 14.6045C2.27668 14.2049 2.4467 13.8521 2.69322 13.5461C2.93975 13.2486 3.24578 13.0105 3.61132 12.832C3.97685 12.645 4.38064 12.543 4.82269 12.526C5.36674 12.5005 5.86829 12.5983 6.32733 12.8193C6.54836 12.9213 6.75238 13.0488 6.93939 13.2018C7.12641 13.3548 7.28368 13.5333 7.41119 13.7374C7.5047 13.8904 7.55145 14.0476 7.55145 14.2092C7.55145 14.3707 7.51745 14.5194 7.44944 14.6555C7.37294 14.7915 7.26668 14.9062 7.13066 14.9997C6.99465 15.0847 6.83738 15.1273 6.65887 15.1273H6.64612C6.4931 15.1273 6.34434 15.0847 6.19982 14.9997C6.06381 14.9147 5.9533 14.8085 5.86829 14.681C5.82578 14.6045 5.77903 14.5364 5.72802 14.4769C5.69402 14.4429 5.66002 14.4132 5.62601 14.3877C5.59201 14.3537 5.55376 14.3197 5.51125 14.2857C5.33274 14.1667 5.14147 14.1157 4.93745 14.1327C4.73343 14.1412 4.54641 14.1964 4.37639 14.2984C4.21487 14.4004 4.08736 14.5407 3.99385 14.7192C3.90884 14.8977 3.89609 15.0975 3.9556 15.3185C3.9981 15.4885 4.07461 15.6288 4.18512 15.7393C4.29563 15.8413 4.42315 15.9306 4.56766 16.0071C4.71217 16.0836 4.86519 16.1474 5.02671 16.1984C5.18822 16.2494 5.34124 16.3004 5.48575 16.3514C5.65577 16.4109 5.82153 16.4746 5.98305 16.5426C6.15307 16.6021 6.31458 16.6744 6.4676 16.7594C6.62061 16.8444 6.76938 16.9379 6.91389 17.0399C7.05841 17.142 7.19017 17.261 7.30918 17.397Z" fill="white"/>
<path d="M14.328 13.9159C14.447 14.1539 14.5362 14.3919 14.5957 14.63C14.6212 14.749 14.6425 14.8765 14.6595 15.0125C14.6765 15.14 14.685 15.276 14.685 15.4205V20.7633C14.685 21.0268 14.5957 21.2479 14.4172 21.4264C14.2217 21.6049 14.0007 21.6942 13.7541 21.6942C13.4991 21.6942 13.2823 21.6049 13.1038 21.4264C12.9253 21.2479 12.8361 21.0268 12.8361 20.7633V18.9526C12.8361 18.9186 12.8233 18.8889 12.7978 18.8634C12.7723 18.8379 12.7425 18.8251 12.7085 18.8251H10.7831C10.7491 18.8251 10.7193 18.8379 10.6938 18.8634C10.6683 18.8804 10.6556 18.9101 10.6556 18.9526V20.7633C10.6556 21.0268 10.5663 21.2479 10.3878 21.4264C10.2093 21.6049 9.99252 21.6942 9.7375 21.6942C9.47397 21.6942 9.25295 21.6049 9.07443 21.4264C8.89592 21.2479 8.80666 21.0268 8.80666 20.7633V15.4205C8.80666 15.123 8.83641 14.8595 8.89592 14.63C8.92992 14.5024 8.96392 14.3834 8.99793 14.2729C9.04043 14.1539 9.09569 14.0349 9.16369 13.9159C9.2742 13.7119 9.41447 13.5163 9.58448 13.3293C9.67799 13.2443 9.7715 13.1678 9.86501 13.0998C9.95852 13.0233 10.0605 12.9553 10.171 12.8958C10.3836 12.7768 10.6258 12.6833 10.8979 12.6153C11.1869 12.5472 11.4674 12.5132 11.7394 12.5132C11.8925 12.5132 12.037 12.5217 12.173 12.5387C12.3175 12.5557 12.4578 12.5813 12.5938 12.6153C12.8658 12.6833 13.1038 12.7768 13.3079 12.8958C13.4269 12.9553 13.5331 13.0233 13.6266 13.0998C13.7201 13.1678 13.8094 13.2443 13.8944 13.3293C14.0644 13.5078 14.2089 13.7034 14.328 13.9159ZM10.7831 17.193H12.7085C12.7425 17.193 12.7723 17.1802 12.7978 17.1547C12.8063 17.1377 12.8148 17.125 12.8233 17.1165C12.8318 17.0994 12.8361 17.0824 12.8361 17.0654V15.497C12.8361 15.31 12.8106 15.1315 12.7595 14.9615C12.7255 14.8255 12.6575 14.6852 12.5555 14.5407C12.462 14.4217 12.3515 14.3367 12.224 14.2857C12.0965 14.2262 11.935 14.1964 11.7394 14.1964C11.5524 14.1964 11.3952 14.2262 11.2677 14.2857C11.1401 14.3367 11.0296 14.4217 10.9361 14.5407C10.8341 14.6852 10.7661 14.8255 10.7321 14.9615C10.6811 15.1315 10.6556 15.31 10.6556 15.497V17.0654C10.6556 17.0994 10.6683 17.1292 10.6938 17.1547C10.7193 17.1802 10.7491 17.193 10.7831 17.193Z" fill="white"/>
<path d="M16.6984 21.6942C16.4349 21.6942 16.2138 21.6049 16.0353 21.4264C15.8568 21.2479 15.7675 21.0268 15.7675 20.7633V15.4205C15.7675 15.123 15.7973 14.8595 15.8568 14.63C15.8908 14.5024 15.9248 14.3834 15.9588 14.2729C16.0013 14.1539 16.0566 14.0349 16.1246 13.9159C16.2351 13.7119 16.3754 13.5163 16.5454 13.3293C16.6389 13.2443 16.7324 13.1678 16.8259 13.0998C16.9194 13.0233 17.0214 12.9553 17.1319 12.8958C17.3445 12.7768 17.5867 12.6833 17.8588 12.6153C18.1478 12.5472 18.4283 12.5132 18.7003 12.5132C18.8534 12.5132 18.9979 12.5217 19.1339 12.5387C19.2784 12.5557 19.4187 12.5813 19.5547 12.6153C19.6227 12.6323 19.6949 12.6578 19.7714 12.6918C19.848 12.7173 19.9245 12.747 20.001 12.781C20.086 12.815 20.1752 12.8533 20.2687 12.8958C20.3878 12.9553 20.494 13.0233 20.5875 13.0998C20.681 13.1678 20.7703 13.2443 20.8553 13.3293C21.0253 13.5078 21.1698 13.7034 21.2888 13.9159C21.4079 14.1539 21.4971 14.3919 21.5566 14.63C21.5821 14.749 21.6034 14.8765 21.6204 15.0125C21.6374 15.14 21.6459 15.276 21.6459 15.4205V20.7633C21.6459 21.0268 21.5566 21.2479 21.3781 21.4264C21.1826 21.6049 20.9616 21.6942 20.715 21.6942C20.46 21.6942 20.2432 21.6049 20.0647 21.4264C19.8862 21.2479 19.7969 21.0268 19.7969 20.7633V15.497C19.7969 15.31 19.7714 15.1315 19.7204 14.9615C19.6864 14.8255 19.6184 14.6852 19.5164 14.5407C19.4229 14.4217 19.3124 14.3367 19.1849 14.2857C19.0574 14.2262 18.8959 14.1964 18.7003 14.1964C18.5133 14.1964 18.3561 14.2262 18.2285 14.2857C18.101 14.3367 17.9905 14.4217 17.897 14.5407C17.795 14.6852 17.727 14.8255 17.693 14.9615C17.642 15.1315 17.6165 15.31 17.6165 15.497V20.7633C17.6165 21.0268 17.5272 21.2479 17.3487 21.4264C17.1702 21.6049 16.9534 21.6942 16.6984 21.6942Z" fill="white"/>
<path d="M22.7284 13.5206C22.7284 13.2911 22.8092 13.0956 22.9707 12.934C23.1322 12.7725 23.3278 12.6918 23.5573 12.6918H27.6887C27.9182 12.6918 28.1137 12.7725 28.2752 12.934C28.4368 13.0956 28.5175 13.2911 28.5175 13.5206C28.5175 13.7501 28.4368 13.9456 28.2752 14.1072C28.1137 14.2687 27.9182 14.3494 27.6887 14.3494H26.6813C26.6473 14.3494 26.6176 14.3622 26.5921 14.3877C26.5666 14.4047 26.5538 14.4344 26.5538 14.4769V20.8653C26.5538 21.0948 26.4731 21.2904 26.3115 21.4519C26.15 21.6134 25.9545 21.6942 25.725 21.6942H25.5337C25.3042 21.6942 25.1087 21.6134 24.9472 21.4519C24.7856 21.2904 24.7049 21.0948 24.7049 20.8653V14.4769C24.7049 14.4344 24.6921 14.4047 24.6666 14.3877C24.6411 14.3622 24.6114 14.3494 24.5774 14.3494H23.5573C23.3278 14.3494 23.1322 14.2687 22.9707 14.1072C22.8092 13.9456 22.7284 13.7501 22.7284 13.5206Z" fill="white"/>
<path d="M34.9367 13.9159C35.0557 14.1539 35.145 14.3919 35.2045 14.63C35.23 14.749 35.2512 14.8765 35.2682 15.0125C35.2852 15.14 35.2937 15.276 35.2937 15.4205V18.9654C35.2937 19.1099 35.2852 19.2502 35.2682 19.3862C35.2512 19.5137 35.23 19.6412 35.2045 19.7687C35.1365 20.0237 35.0472 20.2575 34.9367 20.47C34.8177 20.6911 34.6732 20.8866 34.5031 21.0566C34.3246 21.2351 34.1291 21.3839 33.9166 21.5029C33.8061 21.5624 33.6913 21.6176 33.5723 21.6687C33.4533 21.7112 33.33 21.7452 33.2025 21.7707C33.0665 21.8047 32.9262 21.8302 32.7817 21.8472C32.6457 21.8642 32.5012 21.8727 32.3482 21.8727C32.0761 21.8727 31.7956 21.8387 31.5066 21.7707C31.3791 21.7452 31.2558 21.7112 31.1368 21.6687C31.0178 21.6176 30.8988 21.5624 30.7798 21.5029C30.6693 21.4349 30.5672 21.3669 30.4737 21.2989C30.3802 21.2224 30.2867 21.1416 30.1932 21.0566C30.0232 20.8696 29.8829 20.6741 29.7724 20.47C29.7044 20.3595 29.6492 20.2448 29.6067 20.1257C29.5727 20.0067 29.5386 19.8877 29.5046 19.7687C29.4451 19.5307 29.4154 19.2629 29.4154 18.9654V15.4205C29.4154 15.123 29.4451 14.8595 29.5046 14.63C29.5386 14.5024 29.5727 14.3834 29.6067 14.2729C29.6492 14.1539 29.7044 14.0349 29.7724 13.9159C29.8829 13.7119 30.0232 13.5163 30.1932 13.3293C30.2867 13.2443 30.3802 13.1678 30.4737 13.0998C30.5672 13.0233 30.6693 12.9553 30.7798 12.8958C30.9923 12.7768 31.2346 12.6833 31.5066 12.6153C31.7956 12.5472 32.0761 12.5132 32.3482 12.5132C32.5012 12.5132 32.6457 12.5217 32.7817 12.5387C32.9262 12.5557 33.0665 12.5813 33.2025 12.6153C33.4745 12.6833 33.7126 12.7768 33.9166 12.8958C34.0356 12.9553 34.1419 13.0233 34.2354 13.0998C34.3289 13.1678 34.4181 13.2443 34.5031 13.3293C34.6732 13.5078 34.8177 13.7034 34.9367 13.9159ZM31.2643 15.497V18.8889C31.2643 19.0929 31.2898 19.2714 31.3408 19.4244C31.3578 19.5094 31.3833 19.5859 31.4173 19.654C31.4598 19.7135 31.5023 19.7772 31.5448 19.8452C31.6384 19.9642 31.7489 20.0492 31.8764 20.1002C32.0039 20.1598 32.1612 20.1895 32.3482 20.1895C32.5437 20.1895 32.7052 20.1598 32.8327 20.1002C32.9602 20.0492 33.0707 19.9642 33.1643 19.8452C33.2068 19.7772 33.245 19.7135 33.279 19.654C33.3215 19.5859 33.3513 19.5094 33.3683 19.4244C33.4193 19.2714 33.4448 19.0929 33.4448 18.8889V15.497C33.4448 15.31 33.4193 15.1315 33.3683 14.9615C33.3343 14.8255 33.2663 14.6852 33.1643 14.5407C33.0707 14.4217 32.9602 14.3367 32.8327 14.2857C32.7052 14.2262 32.5437 14.1964 32.3482 14.1964C32.1612 14.1964 32.0039 14.2262 31.8764 14.2857C31.7489 14.3367 31.6384 14.4217 31.5448 14.5407C31.4428 14.6852 31.3748 14.8255 31.3408 14.9615C31.2898 15.1315 31.2643 15.31 31.2643 15.497Z" fill="white"/>
<path d="M41.3665 17.397C41.6725 17.7455 41.8596 18.1578 41.9276 18.6339C41.9701 18.8719 41.9786 19.1056 41.9531 19.3352C41.9276 19.5647 41.8808 19.79 41.8128 20.011C41.6768 20.453 41.4345 20.8271 41.086 21.1331C40.7544 21.4391 40.3592 21.6516 39.9001 21.7707C39.4071 21.8897 38.9225 21.9067 38.4465 21.8217C37.9534 21.7452 37.5071 21.5581 37.1076 21.2606C36.9376 21.1416 36.7803 20.9886 36.6358 20.8016C36.4998 20.623 36.3893 20.4445 36.3042 20.266C36.2362 20.1215 36.2107 19.977 36.2277 19.8325C36.2447 19.6795 36.2915 19.5434 36.368 19.4244C36.4445 19.3054 36.5465 19.2077 36.674 19.1311C36.8101 19.0546 36.9588 19.0164 37.1203 19.0164C37.2903 19.0164 37.4476 19.0631 37.5921 19.1567C37.7451 19.2502 37.8514 19.3734 37.9109 19.5264C37.9279 19.5604 37.9449 19.5944 37.9619 19.6284C37.9874 19.654 38.0129 19.6837 38.0384 19.7177C38.0554 19.7602 38.0767 19.7985 38.1022 19.8325C38.1362 19.858 38.1702 19.8877 38.2042 19.9217C38.3402 20.0407 38.4932 20.1257 38.6632 20.1768C38.8418 20.2278 39.0203 20.2448 39.1988 20.2278C39.3773 20.2108 39.5431 20.1555 39.6961 20.062C39.8491 19.9685 39.9681 19.8367 40.0531 19.6667C40.1551 19.4542 40.1934 19.2629 40.1679 19.0929C40.1509 18.9229 40.0914 18.7656 39.9894 18.6211C39.8874 18.4766 39.7513 18.3576 39.5813 18.2641C39.4198 18.1621 39.2498 18.0813 39.0713 18.0218C38.7822 17.9198 38.489 17.8135 38.1914 17.703C37.8939 17.5925 37.6176 17.4565 37.3626 17.295C37.0991 17.125 36.8696 16.9294 36.674 16.7084C36.487 16.4789 36.351 16.1941 36.266 15.8541C36.164 15.412 36.1555 14.9955 36.2405 14.6045C36.334 14.2049 36.504 13.8521 36.7505 13.5461C36.9971 13.2486 37.3031 13.0105 37.6686 12.832C38.0342 12.645 38.438 12.543 38.88 12.526C39.4241 12.5005 39.9256 12.5983 40.3847 12.8193C40.6057 12.9213 40.8097 13.0488 40.9967 13.2018C41.1837 13.3548 41.341 13.5333 41.4685 13.7374C41.562 13.8904 41.6088 14.0476 41.6088 14.2092C41.6088 14.3707 41.5748 14.5194 41.5068 14.6555C41.4303 14.7915 41.324 14.9062 41.188 14.9997C41.052 15.0847 40.8947 15.1273 40.7162 15.1273H40.7034C40.5504 15.1273 40.4017 15.0847 40.2571 14.9997C40.1211 14.9147 40.0106 14.8085 39.9256 14.681C39.8831 14.6045 39.8363 14.5364 39.7853 14.4769C39.7513 14.4429 39.7173 14.4132 39.6833 14.3877C39.6493 14.3537 39.6111 14.3197 39.5686 14.2857C39.3901 14.1667 39.1988 14.1157 38.9948 14.1327C38.7907 14.1412 38.6037 14.1964 38.4337 14.2984C38.2722 14.4004 38.1447 14.5407 38.0512 14.7192C37.9662 14.8977 37.9534 15.0975 38.0129 15.3185C38.0554 15.4885 38.1319 15.6288 38.2424 15.7393C38.353 15.8413 38.4805 15.9306 38.625 16.0071C38.7695 16.0836 38.9225 16.1474 39.084 16.1984C39.2455 16.2494 39.3986 16.3004 39.5431 16.3514C39.7131 16.4109 39.8789 16.4746 40.0404 16.5426C40.2104 16.6021 40.3719 16.6744 40.5249 16.7594C40.6779 16.8444 40.8267 16.9379 40.9712 17.0399C41.1157 17.142 41.2475 17.261 41.3665 17.397Z" fill="white"/>
</svg>
