<svg width="45" height="24" viewBox="0 0 45 24" fill="none" xmlns="http://www.w3.org/2000/svg">
<path d="M7.26733 2.26973C7.49686 2.26973 7.69238 2.35048 7.85389 2.512C8.01541 2.67351 8.09617 2.86903 8.09617 3.09856V8.54335C8.09617 8.68786 8.08767 8.82812 8.07066 8.96414C8.05366 9.09165 8.03241 9.21916 8.00691 9.34667C7.9389 9.6017 7.84964 9.83547 7.73913 10.048C7.62012 10.269 7.4756 10.4645 7.30559 10.6346C7.12707 10.8131 6.93155 10.9618 6.71903 11.0808C6.60852 11.1404 6.49376 11.1956 6.37475 11.2466C6.25573 11.2891 6.13247 11.3231 6.00496 11.3486C5.86895 11.3826 5.72868 11.4081 5.58417 11.4251C5.44815 11.4421 5.30364 11.4506 5.15062 11.4506C4.8786 11.4506 4.59807 11.4166 4.30904 11.3486C4.18153 11.3231 4.05827 11.2891 3.93925 11.2466C3.82024 11.1956 3.70123 11.1404 3.58222 11.0808C3.47171 11.0128 3.3697 10.9448 3.27619 10.8768C3.18268 10.8003 3.08917 10.7196 2.99566 10.6346C2.82564 10.4475 2.68538 10.252 2.57487 10.048C2.50686 9.93748 2.45161 9.82272 2.4091 9.70371C2.3751 9.5847 2.3411 9.46569 2.30709 9.34667C2.24759 9.10865 2.21783 8.84088 2.21783 8.54335V8.46684C2.21783 8.21181 2.30709 7.99504 2.48561 7.81652C2.67263 7.62951 2.89365 7.54025 3.14868 7.54875C3.4037 7.54875 3.62047 7.63801 3.79899 7.81652C3.97751 8.01204 4.06677 8.22882 4.06677 8.46684V8.47959C4.06677 8.67511 4.09227 8.84938 4.14327 9.00239C4.16028 9.0874 4.18578 9.16391 4.21978 9.23191C4.26229 9.29142 4.30479 9.35518 4.3473 9.42318C4.4408 9.5422 4.55132 9.6272 4.67883 9.67821C4.80634 9.73771 4.96361 9.76747 5.15062 9.76747C5.34614 9.76747 5.50766 9.73771 5.63517 9.67821C5.76269 9.6272 5.8732 9.5422 5.96671 9.42318C6.00921 9.35518 6.04746 9.29142 6.08147 9.23191C6.12397 9.16391 6.15372 9.0874 6.17073 9.00239C6.22173 8.84938 6.24723 8.67086 6.24723 8.46684V4.0549C6.24723 4.0209 6.23448 3.99115 6.20898 3.96564C6.18348 3.94014 6.15372 3.92739 6.11972 3.92739H3.73523C3.50571 3.92739 3.31019 3.84663 3.14868 3.68512C2.99566 3.5406 2.91065 3.34933 2.89365 3.11131C2.89365 2.87328 2.97441 2.67351 3.13593 2.512C3.21243 2.44399 3.29744 2.38874 3.39095 2.34623C3.49296 2.29523 3.60347 2.26973 3.72248 2.26973H7.26733Z" fill="white"/>
<path d="M14.7 3.49385C14.819 3.73187 14.9083 3.96989 14.9678 4.20792C14.9933 4.32693 15.0146 4.45444 15.0316 4.59045C15.0486 4.71797 15.0571 4.85398 15.0571 4.9985V8.54335C15.0571 8.68786 15.0486 8.82812 15.0316 8.96414C15.0146 9.09165 14.9933 9.21916 14.9678 9.34667C14.8998 9.6017 14.8105 9.83547 14.7 10.048C14.581 10.269 14.4365 10.4645 14.2665 10.6346C14.088 10.8131 13.8924 10.9618 13.6799 11.0808C13.5694 11.1404 13.4547 11.1956 13.3356 11.2466C13.2166 11.2891 13.0934 11.3231 12.9659 11.3486C12.8298 11.3826 12.6896 11.4081 12.5451 11.4251C12.409 11.4421 12.2645 11.4506 12.1115 11.4506C11.8395 11.4506 11.559 11.4166 11.2699 11.3486C11.1424 11.3231 11.0192 11.2891 10.9001 11.2466C10.7811 11.1956 10.6621 11.1404 10.5431 11.0808C10.4326 11.0128 10.3306 10.9448 10.2371 10.8768C10.1436 10.8003 10.0501 10.7196 9.95655 10.6346C9.78654 10.4475 9.64627 10.252 9.53576 10.048C9.46776 9.93748 9.4125 9.82272 9.37 9.70371C9.33599 9.5847 9.30199 9.46569 9.26799 9.34667C9.20848 9.10865 9.17873 8.84088 9.17873 8.54335V4.9985C9.17873 4.70097 9.20848 4.43744 9.26799 4.20792C9.30199 4.0804 9.33599 3.96139 9.37 3.85088C9.4125 3.73187 9.46776 3.61286 9.53576 3.49385C9.64627 3.28983 9.78654 3.09431 9.95655 2.90729C10.0501 2.82228 10.1436 2.74577 10.2371 2.67777C10.3306 2.60126 10.4326 2.53325 10.5431 2.47374C10.7556 2.35473 10.9979 2.26122 11.2699 2.19322C11.559 2.12521 11.8395 2.09121 12.1115 2.09121C12.2645 2.09121 12.409 2.09971 12.5451 2.11671C12.6896 2.13371 12.8298 2.15921 12.9659 2.19322C13.2379 2.26122 13.4759 2.35473 13.6799 2.47374C13.7989 2.53325 13.9052 2.60126 13.9987 2.67777C14.0922 2.74577 14.1815 2.82228 14.2665 2.90729C14.4365 3.08581 14.581 3.28133 14.7 3.49385ZM11.0277 5.075V8.46684C11.0277 8.67086 11.0532 8.84938 11.1042 9.00239C11.1212 9.0874 11.1467 9.16391 11.1807 9.23191C11.2232 9.29142 11.2657 9.35518 11.3082 9.42318C11.4017 9.5422 11.5122 9.6272 11.6397 9.67821C11.7672 9.73771 11.9245 9.76747 12.1115 9.76747C12.307 9.76747 12.4686 9.73771 12.5961 9.67821C12.7236 9.6272 12.8341 9.5422 12.9276 9.42318C12.9701 9.35518 13.0084 9.29142 13.0424 9.23191C13.0849 9.16391 13.1146 9.0874 13.1316 9.00239C13.1826 8.84938 13.2081 8.67086 13.2081 8.46684V5.075C13.2081 4.88798 13.1826 4.70947 13.1316 4.53945C13.0976 4.40344 13.0296 4.26317 12.9276 4.11866C12.8341 3.99965 12.7236 3.91464 12.5961 3.86363C12.4686 3.80413 12.307 3.77437 12.1115 3.77437C11.9245 3.77437 11.7672 3.80413 11.6397 3.86363C11.5122 3.91464 11.4017 3.99965 11.3082 4.11866C11.2062 4.26317 11.1382 4.40344 11.1042 4.53945C11.0532 4.70947 11.0277 4.88798 11.0277 5.075Z" fill="white"/>
<path d="M21.4741 3.49385C21.5931 3.73187 21.6824 3.96989 21.7419 4.20792C21.7674 4.32693 21.7887 4.45444 21.8057 4.59045C21.8227 4.71797 21.8312 4.85398 21.8312 4.9985V10.3413C21.8312 10.6048 21.7419 10.8258 21.5634 11.0043C21.3679 11.1829 21.1468 11.2721 20.9003 11.2721C20.6453 11.2721 20.4285 11.1829 20.25 11.0043C20.0715 10.8258 19.9822 10.6048 19.9822 10.3413V8.53059C19.9822 8.49659 19.9695 8.46684 19.944 8.44134C19.9185 8.41583 19.8887 8.40308 19.8547 8.40308H17.9293C17.8953 8.40308 17.8655 8.41583 17.84 8.44134C17.8145 8.45834 17.8018 8.48809 17.8018 8.53059V10.3413C17.8018 10.6048 17.7125 10.8258 17.534 11.0043C17.3555 11.1829 17.1387 11.2721 16.8837 11.2721C16.6202 11.2721 16.3991 11.1829 16.2206 11.0043C16.0421 10.8258 15.9528 10.6048 15.9528 10.3413V4.9985C15.9528 4.70097 15.9826 4.43744 16.0421 4.20792C16.0761 4.0804 16.1101 3.96139 16.1441 3.85088C16.1866 3.73187 16.2419 3.61286 16.3099 3.49385C16.4204 3.28983 16.5606 3.09431 16.7307 2.90729C16.8242 2.82228 16.9177 2.74577 17.0112 2.67777C17.1047 2.60126 17.2067 2.53325 17.3172 2.47374C17.5297 2.35473 17.772 2.26122 18.044 2.19322C18.3331 2.12521 18.6136 2.09121 18.8856 2.09121C19.0386 2.09121 19.1832 2.09971 19.3192 2.11671C19.4637 2.13371 19.6039 2.15921 19.74 2.19322C20.012 2.26122 20.25 2.35473 20.454 2.47374C20.573 2.53325 20.6793 2.60126 20.7728 2.67777C20.8663 2.74577 20.9556 2.82228 21.0406 2.90729C21.2106 3.08581 21.3551 3.28133 21.4741 3.49385ZM17.9293 6.77092H19.8547C19.8887 6.77092 19.9185 6.75817 19.944 6.73267C19.9525 6.71567 19.961 6.70291 19.9695 6.69441C19.978 6.67741 19.9822 6.66041 19.9822 6.64341V5.075C19.9822 4.88798 19.9567 4.70947 19.9057 4.53945C19.8717 4.40344 19.8037 4.26317 19.7017 4.11866C19.6082 3.99965 19.4977 3.91464 19.3702 3.86363C19.2427 3.80413 19.0811 3.77437 18.8856 3.77437C18.6986 3.77437 18.5413 3.80413 18.4138 3.86363C18.2863 3.91464 18.1758 3.99965 18.0823 4.11866C17.9803 4.26317 17.9123 4.40344 17.8783 4.53945C17.8273 4.70947 17.8018 4.88798 17.8018 5.075V6.64341C17.8018 6.67741 17.8145 6.70716 17.84 6.73267C17.8655 6.75817 17.8953 6.77092 17.9293 6.77092ZM20.8366 0C20.9726 0 21.0916 0.0595059 21.1936 0.178518C21.2956 0.280528 21.3381 0.408041 21.3211 0.561056L21.3084 0.739574C21.2999 0.773577 21.2956 0.80758 21.2956 0.841584C21.2531 0.994599 21.2021 1.12636 21.1426 1.23687C21.1086 1.29638 21.0746 1.35163 21.0406 1.40264C21.0066 1.45364 20.9683 1.5004 20.9258 1.5429C20.7813 1.68742 20.6325 1.78943 20.4795 1.84893C20.3095 1.91694 20.1267 1.94244 19.9312 1.92544C19.8802 1.92544 19.8292 1.92544 19.7782 1.92544C19.7272 1.91694 19.6805 1.90844 19.6379 1.89994L19.3702 1.82343C19.3277 1.78943 19.2809 1.76818 19.2299 1.75967C19.2129 1.74267 19.1917 1.72992 19.1662 1.72142C19.1407 1.70442 19.1151 1.68742 19.0896 1.67042L18.8091 1.53015L18.6689 1.4664C18.6434 1.44939 18.6178 1.43664 18.5923 1.42814C18.5668 1.41964 18.5456 1.40689 18.5286 1.38989C18.5031 1.38139 18.4776 1.37289 18.4521 1.36439C18.4351 1.35588 18.4138 1.34738 18.3883 1.33888C18.3373 1.32188 18.2991 1.31338 18.2736 1.31338C18.2566 1.30488 18.2268 1.30063 18.1843 1.30063C18.0993 1.29213 18.0228 1.32188 17.9548 1.38989C17.9038 1.43239 17.8698 1.52165 17.8528 1.65766C17.8528 1.77668 17.7975 1.87869 17.687 1.96369C17.585 2.0402 17.466 2.07846 17.33 2.07846C17.1855 2.06145 17.0664 2.00195 16.9729 1.89994C16.8794 1.78943 16.8369 1.66191 16.8454 1.5174L16.8709 1.33888C16.8709 1.27938 16.8752 1.24537 16.8837 1.23687C16.9092 1.10086 16.9559 0.969096 17.0239 0.841584C17.0919 0.70557 17.1642 0.60356 17.2407 0.535553C17.3767 0.39954 17.5297 0.29753 17.6998 0.229523C17.8613 0.170017 18.0398 0.144515 18.2353 0.153015C18.2863 0.153015 18.3373 0.157266 18.3883 0.165767C18.4393 0.165767 18.4861 0.170017 18.5286 0.178518C18.5796 0.19552 18.6263 0.208271 18.6689 0.216772C18.7114 0.225272 18.7539 0.238024 18.7964 0.255026C18.8134 0.272027 18.8346 0.284778 18.8601 0.293279C18.8856 0.293279 18.9111 0.30178 18.9366 0.318782C18.9621 0.335783 18.9834 0.348535 19.0004 0.357035C19.0259 0.365537 19.0556 0.378288 19.0896 0.395289L19.1789 0.446295L19.2937 0.510051L19.4977 0.612061C19.5657 0.646064 19.6124 0.671567 19.6379 0.688568C19.6635 0.697069 19.689 0.70557 19.7145 0.714071C19.74 0.722572 19.7612 0.731073 19.7782 0.739574C19.8292 0.756575 19.8675 0.765076 19.893 0.765076C19.91 0.773577 19.9397 0.777828 19.9822 0.777828C20.0842 0.777828 20.1608 0.748075 20.2118 0.688568C20.2798 0.637564 20.3138 0.548305 20.3138 0.420792C20.3138 0.352785 20.3308 0.29753 20.3648 0.255026C20.3988 0.20402 20.437 0.157266 20.4795 0.114761C20.5815 0.0382538 20.7006 0 20.8366 0Z" fill="white"/>
<path d="M28.2482 3.49385C28.3672 3.73187 28.4565 3.96989 28.516 4.20792C28.5415 4.32693 28.5628 4.45444 28.5798 4.59045C28.5968 4.71797 28.6053 4.85398 28.6053 4.9985V8.54335C28.6053 8.68786 28.5968 8.82812 28.5798 8.96414C28.5628 9.09165 28.5415 9.21916 28.516 9.34667C28.448 9.6017 28.3587 9.83547 28.2482 10.048C28.1292 10.269 27.9847 10.4645 27.8147 10.6346C27.6362 10.8131 27.4407 10.9618 27.2281 11.0808C27.1176 11.1404 27.0029 11.1956 26.8839 11.2466C26.7648 11.2891 26.6416 11.3231 26.5141 11.3486C26.3781 11.3826 26.2378 11.4081 26.0933 11.4251C25.9573 11.4421 25.8127 11.4506 25.6597 11.4506C25.3877 11.4506 25.1072 11.4166 24.8181 11.3486C24.6906 11.3231 24.5674 11.2891 24.4484 11.2466C24.3294 11.1956 24.2103 11.1404 24.0913 11.0808C23.9808 11.0128 23.8788 10.9448 23.7853 10.8768C23.6918 10.8003 23.5983 10.7196 23.5048 10.6346C23.3348 10.4475 23.1945 10.252 23.084 10.048C23.016 9.93748 22.9607 9.82272 22.9182 9.70371C22.8842 9.5847 22.8502 9.46569 22.8162 9.34667C22.7567 9.10865 22.7269 8.84088 22.7269 8.54335V4.9985C22.7269 4.70097 22.7567 4.43744 22.8162 4.20792C22.8502 4.0804 22.8842 3.96139 22.9182 3.85088C22.9607 3.73187 23.016 3.61286 23.084 3.49385C23.1945 3.28983 23.3348 3.09431 23.5048 2.90729C23.5983 2.82228 23.6918 2.74577 23.7853 2.67777C23.8788 2.60126 23.9808 2.53325 24.0913 2.47374C24.3038 2.35473 24.5461 2.26122 24.8181 2.19322C25.1072 2.12521 25.3877 2.09121 25.6597 2.09121C25.8127 2.09121 25.9573 2.09971 26.0933 2.11671C26.2378 2.13371 26.3781 2.15921 26.5141 2.19322C26.7861 2.26122 27.0241 2.35473 27.2281 2.47374C27.3471 2.53325 27.4534 2.60126 27.5469 2.67777C27.6404 2.74577 27.7297 2.82228 27.8147 2.90729C27.9847 3.08581 28.1292 3.28133 28.2482 3.49385ZM24.5759 5.075V8.46684C24.5759 8.67086 24.6014 8.84938 24.6524 9.00239C24.6694 9.0874 24.6949 9.16391 24.7289 9.23191C24.7714 9.29142 24.8139 9.35518 24.8564 9.42318C24.9499 9.5422 25.0604 9.6272 25.1879 9.67821C25.3154 9.73771 25.4727 9.76747 25.6597 9.76747C25.8553 9.76747 26.0168 9.73771 26.1443 9.67821C26.2718 9.6272 26.3823 9.5422 26.4758 9.42318C26.5183 9.35518 26.5566 9.29142 26.5906 9.23191C26.6331 9.16391 26.6628 9.0874 26.6798 9.00239C26.7308 8.84938 26.7563 8.67086 26.7563 8.46684V5.075C26.7563 4.88798 26.7308 4.70947 26.6798 4.53945C26.6458 4.40344 26.5778 4.26317 26.4758 4.11866C26.3823 3.99965 26.2718 3.91464 26.1443 3.86363C26.0168 3.80413 25.8553 3.77437 25.6597 3.77437C25.4727 3.77437 25.3154 3.80413 25.1879 3.86363C25.0604 3.91464 24.9499 3.99965 24.8564 4.11866C24.7544 4.26317 24.6864 4.40344 24.6524 4.53945C24.6014 4.70947 24.5759 4.88798 24.5759 5.075Z" fill="white"/>
<path d="M0.0926208 14.6385C0.0926208 12.291 1.9956 10.388 4.34304 10.388H39.9348C42.2823 10.388 44.1852 12.291 44.1852 14.6385V19.7496C44.1852 22.097 42.2823 24 39.9348 24H4.34304C1.99559 24 0.0926208 22.097 0.0926208 19.7496V14.6385Z" fill="white"/>
<path d="M7.4018 17.397C7.70783 17.7455 7.89485 18.1578 7.96286 18.6339C8.00536 18.8719 8.01386 19.1056 7.98836 19.3352C7.96286 19.5647 7.9161 19.79 7.8481 20.011C7.71208 20.453 7.46981 20.8271 7.12127 21.1331C6.78974 21.4391 6.39445 21.6516 5.93541 21.7707C5.44236 21.8897 4.95781 21.9067 4.48176 21.8217C3.98871 21.7452 3.54242 21.5581 3.14288 21.2606C2.97286 21.1416 2.8156 20.9886 2.67108 20.8016C2.53507 20.623 2.42456 20.4445 2.33955 20.266C2.27154 20.1215 2.24604 19.977 2.26304 19.8325C2.28005 19.6795 2.3268 19.5434 2.40331 19.4244C2.47981 19.3054 2.58183 19.2077 2.70934 19.1311C2.84535 19.0546 2.99412 19.0164 3.15563 19.0164C3.32565 19.0164 3.48291 19.0631 3.62743 19.1567C3.78044 19.2502 3.8867 19.3734 3.94621 19.5264C3.96321 19.5604 3.98021 19.5944 3.99722 19.6284C4.02272 19.654 4.04822 19.6837 4.07372 19.7177C4.09072 19.7602 4.11198 19.7985 4.13748 19.8325C4.17148 19.858 4.20549 19.8877 4.23949 19.9217C4.3755 20.0407 4.52852 20.1257 4.69853 20.1768C4.87705 20.2278 5.05557 20.2448 5.23409 20.2278C5.4126 20.2108 5.57837 20.1555 5.73139 20.062C5.8844 19.9685 6.00341 19.8367 6.08842 19.6667C6.19043 19.4542 6.22869 19.2629 6.20318 19.0929C6.18618 18.9229 6.12668 18.7656 6.02467 18.6211C5.92266 18.4766 5.78664 18.3576 5.61663 18.2641C5.45511 18.1621 5.28509 18.0813 5.10657 18.0218C4.81755 17.9198 4.52427 17.8135 4.22674 17.703C3.92921 17.5925 3.65293 17.4565 3.39791 17.295C3.13438 17.125 2.90486 16.9294 2.70934 16.7084C2.52232 16.4789 2.38631 16.1941 2.3013 15.8541C2.19929 15.412 2.19079 14.9955 2.27579 14.6045C2.3693 14.2049 2.53932 13.8521 2.78585 13.5461C3.03237 13.2486 3.3384 13.0105 3.70394 12.832C4.06947 12.645 4.47326 12.543 4.91531 12.526C5.45936 12.5005 5.96091 12.5983 6.41995 12.8193C6.64098 12.9213 6.845 13.0488 7.03202 13.2018C7.21903 13.3548 7.3763 13.5333 7.50381 13.7374C7.59732 13.8904 7.64408 14.0476 7.64408 14.2092C7.64408 14.3707 7.61007 14.5194 7.54207 14.6555C7.46556 14.7915 7.3593 14.9062 7.22328 14.9997C7.08727 15.0847 6.93001 15.1273 6.75149 15.1273H6.73874C6.58572 15.1273 6.43696 15.0847 6.29244 14.9997C6.15643 14.9147 6.04592 14.8085 5.96091 14.681C5.91841 14.6045 5.87165 14.5364 5.82065 14.4769C5.78664 14.4429 5.75264 14.4132 5.71864 14.3877C5.68463 14.3537 5.64638 14.3197 5.60387 14.2857C5.42536 14.1667 5.23409 14.1157 5.03007 14.1327C4.82605 14.1412 4.63903 14.1964 4.46901 14.2984C4.3075 14.4004 4.17998 14.5407 4.08647 14.7192C4.00147 14.8977 3.98871 15.0975 4.04822 15.3185C4.09072 15.4885 4.16723 15.6288 4.27774 15.7393C4.38825 15.8413 4.51577 15.9306 4.66028 16.0071C4.80479 16.0836 4.95781 16.1474 5.11933 16.1984C5.28084 16.2494 5.43386 16.3004 5.57837 16.3514C5.74839 16.4109 5.91415 16.4746 6.07567 16.5426C6.24569 16.6021 6.4072 16.6744 6.56022 16.7594C6.71323 16.8444 6.862 16.9379 7.00651 17.0399C7.15103 17.142 7.28279 17.261 7.4018 17.397Z" fill="#171717"/>
<path d="M14.4206 13.9159C14.5396 14.1539 14.6288 14.3919 14.6884 14.63C14.7139 14.749 14.7351 14.8765 14.7521 15.0125C14.7691 15.14 14.7776 15.276 14.7776 15.4205V20.7633C14.7776 21.0268 14.6884 21.2479 14.5098 21.4264C14.3143 21.6049 14.0933 21.6942 13.8468 21.6942C13.5917 21.6942 13.375 21.6049 13.1965 21.4264C13.0179 21.2479 12.9287 21.0268 12.9287 20.7633V18.9526C12.9287 18.9186 12.9159 18.8889 12.8904 18.8634C12.8649 18.8379 12.8352 18.8251 12.8012 18.8251H10.8757C10.8417 18.8251 10.812 18.8379 10.7865 18.8634C10.761 18.8804 10.7482 18.9101 10.7482 18.9526V20.7633C10.7482 21.0268 10.659 21.2479 10.4804 21.4264C10.3019 21.6049 10.0851 21.6942 9.83012 21.6942C9.56659 21.6942 9.34557 21.6049 9.16705 21.4264C8.98854 21.2479 8.89928 21.0268 8.89928 20.7633V15.4205C8.89928 15.123 8.92903 14.8595 8.98854 14.63C9.02254 14.5024 9.05654 14.3834 9.09055 14.2729C9.13305 14.1539 9.18831 14.0349 9.25631 13.9159C9.36682 13.7119 9.50709 13.5163 9.6771 13.3293C9.77061 13.2443 9.86412 13.1678 9.95763 13.0998C10.0511 13.0233 10.1532 12.9553 10.2637 12.8958C10.4762 12.7768 10.7185 12.6833 10.9905 12.6153C11.2795 12.5472 11.56 12.5132 11.8321 12.5132C11.9851 12.5132 12.1296 12.5217 12.2656 12.5387C12.4101 12.5557 12.5504 12.5813 12.6864 12.6153C12.9584 12.6833 13.1965 12.7768 13.4005 12.8958C13.5195 12.9553 13.6257 13.0233 13.7193 13.0998C13.8128 13.1678 13.902 13.2443 13.987 13.3293C14.157 13.5078 14.3016 13.7034 14.4206 13.9159ZM10.8757 17.193H12.8012C12.8352 17.193 12.8649 17.1802 12.8904 17.1547C12.8989 17.1377 12.9074 17.125 12.9159 17.1165C12.9244 17.0994 12.9287 17.0824 12.9287 17.0654V15.497C12.9287 15.31 12.9032 15.1315 12.8522 14.9615C12.8182 14.8255 12.7502 14.6852 12.6481 14.5407C12.5546 14.4217 12.4441 14.3367 12.3166 14.2857C12.1891 14.2262 12.0276 14.1964 11.8321 14.1964C11.645 14.1964 11.4878 14.2262 11.3603 14.2857C11.2328 14.3367 11.1222 14.4217 11.0287 14.5407C10.9267 14.6852 10.8587 14.8255 10.8247 14.9615C10.7737 15.1315 10.7482 15.31 10.7482 15.497V17.0654C10.7482 17.0994 10.761 17.1292 10.7865 17.1547C10.812 17.1802 10.8417 17.193 10.8757 17.193Z" fill="#171717"/>
<path d="M16.791 21.6942C16.5275 21.6942 16.3065 21.6049 16.1279 21.4264C15.9494 21.2479 15.8602 21.0268 15.8602 20.7633V15.4205C15.8602 15.123 15.8899 14.8595 15.9494 14.63C15.9834 14.5024 16.0174 14.3834 16.0514 14.2729C16.0939 14.1539 16.1492 14.0349 16.2172 13.9159C16.3277 13.7119 16.468 13.5163 16.638 13.3293C16.7315 13.2443 16.825 13.1678 16.9185 13.0998C17.012 13.0233 17.114 12.9553 17.2246 12.8958C17.4371 12.7768 17.6794 12.6833 17.9514 12.6153C18.2404 12.5472 18.5209 12.5132 18.793 12.5132C18.946 12.5132 19.0905 12.5217 19.2265 12.5387C19.371 12.5557 19.5113 12.5813 19.6473 12.6153C19.7153 12.6323 19.7876 12.6578 19.8641 12.6918C19.9406 12.7173 20.0171 12.747 20.0936 12.781C20.1786 12.815 20.2679 12.8533 20.3614 12.8958C20.4804 12.9553 20.5866 13.0233 20.6801 13.0998C20.7737 13.1678 20.8629 13.2443 20.9479 13.3293C21.1179 13.5078 21.2625 13.7034 21.3815 13.9159C21.5005 14.1539 21.5897 14.3919 21.6492 14.63C21.6747 14.749 21.696 14.8765 21.713 15.0125C21.73 15.14 21.7385 15.276 21.7385 15.4205V20.7633C21.7385 21.0268 21.6492 21.2479 21.4707 21.4264C21.2752 21.6049 21.0542 21.6942 20.8077 21.6942C20.5526 21.6942 20.3359 21.6049 20.1573 21.4264C19.9788 21.2479 19.8896 21.0268 19.8896 20.7633V15.497C19.8896 15.31 19.8641 15.1315 19.8131 14.9615C19.7791 14.8255 19.7111 14.6852 19.609 14.5407C19.5155 14.4217 19.405 14.3367 19.2775 14.2857C19.15 14.2262 18.9885 14.1964 18.793 14.1964C18.6059 14.1964 18.4487 14.2262 18.3212 14.2857C18.1937 14.3367 18.0831 14.4217 17.9896 14.5407C17.8876 14.6852 17.8196 14.8255 17.7856 14.9615C17.7346 15.1315 17.7091 15.31 17.7091 15.497V20.7633C17.7091 21.0268 17.6198 21.2479 17.4413 21.4264C17.2628 21.6049 17.046 21.6942 16.791 21.6942Z" fill="#171717"/>
<path d="M22.8211 13.5206C22.8211 13.2911 22.9018 13.0956 23.0633 12.934C23.2249 12.7725 23.4204 12.6918 23.6499 12.6918H27.7813C28.0108 12.6918 28.2063 12.7725 28.3679 12.934C28.5294 13.0956 28.6101 13.2911 28.6101 13.5206C28.6101 13.7501 28.5294 13.9456 28.3679 14.1072C28.2063 14.2687 28.0108 14.3494 27.7813 14.3494H26.774C26.74 14.3494 26.7102 14.3622 26.6847 14.3877C26.6592 14.4047 26.6464 14.4344 26.6464 14.4769V20.8653C26.6464 21.0948 26.5657 21.2904 26.4042 21.4519C26.2427 21.6134 26.0471 21.6942 25.8176 21.6942H25.6263C25.3968 21.6942 25.2013 21.6134 25.0398 21.4519C24.8783 21.2904 24.7975 21.0948 24.7975 20.8653V14.4769C24.7975 14.4344 24.7848 14.4047 24.7593 14.3877C24.7338 14.3622 24.704 14.3494 24.67 14.3494H23.6499C23.4204 14.3494 23.2249 14.2687 23.0633 14.1072C22.9018 13.9456 22.8211 13.7501 22.8211 13.5206Z" fill="#171717"/>
<path d="M35.0293 13.9159C35.1483 14.1539 35.2376 14.3919 35.2971 14.63C35.3226 14.749 35.3438 14.8765 35.3608 15.0125C35.3778 15.14 35.3863 15.276 35.3863 15.4205V18.9654C35.3863 19.1099 35.3778 19.2502 35.3608 19.3862C35.3438 19.5137 35.3226 19.6412 35.2971 19.7687C35.2291 20.0237 35.1398 20.2575 35.0293 20.47C34.9103 20.6911 34.7658 20.8866 34.5958 21.0566C34.4172 21.2351 34.2217 21.3839 34.0092 21.5029C33.8987 21.5624 33.7839 21.6176 33.6649 21.6687C33.5459 21.7112 33.4226 21.7452 33.2951 21.7707C33.1591 21.8047 33.0189 21.8302 32.8743 21.8472C32.7383 21.8642 32.5938 21.8727 32.4408 21.8727C32.1688 21.8727 31.8882 21.8387 31.5992 21.7707C31.4717 21.7452 31.3484 21.7112 31.2294 21.6687C31.1104 21.6176 30.9914 21.5624 30.8724 21.5029C30.7619 21.4349 30.6599 21.3669 30.5664 21.2989C30.4729 21.2224 30.3793 21.1416 30.2858 21.0566C30.1158 20.8696 29.9755 20.6741 29.865 20.47C29.797 20.3595 29.7418 20.2448 29.6993 20.1257C29.6653 20.0067 29.6313 19.8877 29.5973 19.7687C29.5378 19.5307 29.508 19.2629 29.508 18.9654V15.4205C29.508 15.123 29.5378 14.8595 29.5973 14.63C29.6313 14.5024 29.6653 14.3834 29.6993 14.2729C29.7418 14.1539 29.797 14.0349 29.865 13.9159C29.9755 13.7119 30.1158 13.5163 30.2858 13.3293C30.3793 13.2443 30.4729 13.1678 30.5664 13.0998C30.6599 13.0233 30.7619 12.9553 30.8724 12.8958C31.0849 12.7768 31.3272 12.6833 31.5992 12.6153C31.8882 12.5472 32.1688 12.5132 32.4408 12.5132C32.5938 12.5132 32.7383 12.5217 32.8743 12.5387C33.0189 12.5557 33.1591 12.5813 33.2951 12.6153C33.5672 12.6833 33.8052 12.7768 34.0092 12.8958C34.1282 12.9553 34.2345 13.0233 34.328 13.0998C34.4215 13.1678 34.5107 13.2443 34.5958 13.3293C34.7658 13.5078 34.9103 13.7034 35.0293 13.9159ZM31.3569 15.497V18.8889C31.3569 19.0929 31.3824 19.2714 31.4334 19.4244C31.4504 19.5094 31.4759 19.5859 31.51 19.654C31.5525 19.7135 31.595 19.7772 31.6375 19.8452C31.731 19.9642 31.8415 20.0492 31.969 20.1002C32.0965 20.1598 32.2538 20.1895 32.4408 20.1895C32.6363 20.1895 32.7978 20.1598 32.9253 20.1002C33.0529 20.0492 33.1634 19.9642 33.2569 19.8452C33.2994 19.7772 33.3376 19.7135 33.3716 19.654C33.4141 19.5859 33.4439 19.5094 33.4609 19.4244C33.5119 19.2714 33.5374 19.0929 33.5374 18.8889V15.497C33.5374 15.31 33.5119 15.1315 33.4609 14.9615C33.4269 14.8255 33.3589 14.6852 33.2569 14.5407C33.1634 14.4217 33.0529 14.3367 32.9253 14.2857C32.7978 14.2262 32.6363 14.1964 32.4408 14.1964C32.2538 14.1964 32.0965 14.2262 31.969 14.2857C31.8415 14.3367 31.731 14.4217 31.6375 14.5407C31.5355 14.6852 31.4674 14.8255 31.4334 14.9615C31.3824 15.1315 31.3569 15.31 31.3569 15.497Z" fill="#171717"/>
<path d="M41.4591 17.397C41.7652 17.7455 41.9522 18.1578 42.0202 18.6339C42.0627 18.8719 42.0712 19.1056 42.0457 19.3352C42.0202 19.5647 41.9734 19.79 41.9054 20.011C41.7694 20.453 41.5271 20.8271 41.1786 21.1331C40.8471 21.4391 40.4518 21.6516 39.9927 21.7707C39.4997 21.8897 39.0151 21.9067 38.5391 21.8217C38.046 21.7452 37.5997 21.5581 37.2002 21.2606C37.0302 21.1416 36.8729 20.9886 36.7284 20.8016C36.5924 20.623 36.4819 20.4445 36.3969 20.266C36.3289 20.1215 36.3034 19.977 36.3204 19.8325C36.3374 19.6795 36.3841 19.5434 36.4606 19.4244C36.5371 19.3054 36.6391 19.2077 36.7667 19.1311C36.9027 19.0546 37.0514 19.0164 37.213 19.0164C37.383 19.0164 37.5402 19.0631 37.6847 19.1567C37.8378 19.2502 37.944 19.3734 38.0035 19.5264C38.0205 19.5604 38.0375 19.5944 38.0545 19.6284C38.08 19.654 38.1055 19.6837 38.131 19.7177C38.148 19.7602 38.1693 19.7985 38.1948 19.8325C38.2288 19.858 38.2628 19.8877 38.2968 19.9217C38.4328 20.0407 38.5858 20.1257 38.7559 20.1768C38.9344 20.2278 39.1129 20.2448 39.2914 20.2278C39.4699 20.2108 39.6357 20.1555 39.7887 20.062C39.9417 19.9685 40.0607 19.8367 40.1457 19.6667C40.2478 19.4542 40.286 19.2629 40.2605 19.0929C40.2435 18.9229 40.184 18.7656 40.082 18.6211C39.98 18.4766 39.844 18.3576 39.6739 18.2641C39.5124 18.1621 39.3424 18.0813 39.1639 18.0218C38.8749 17.9198 38.5816 17.8135 38.2841 17.703C37.9865 17.5925 37.7103 17.4565 37.4552 17.295C37.1917 17.125 36.9622 16.9294 36.7667 16.7084C36.5796 16.4789 36.4436 16.1941 36.3586 15.8541C36.2566 15.412 36.2481 14.9955 36.3331 14.6045C36.4266 14.2049 36.5966 13.8521 36.8432 13.5461C37.0897 13.2486 37.3957 13.0105 37.7613 12.832C38.1268 12.645 38.5306 12.543 38.9726 12.526C39.5167 12.5005 40.0182 12.5983 40.4773 12.8193C40.6983 12.9213 40.9023 13.0488 41.0893 13.2018C41.2764 13.3548 41.4336 13.5333 41.5611 13.7374C41.6546 13.8904 41.7014 14.0476 41.7014 14.2092C41.7014 14.3707 41.6674 14.5194 41.5994 14.6555C41.5229 14.7915 41.4166 14.9062 41.2806 14.9997C41.1446 15.0847 40.9873 15.1273 40.8088 15.1273H40.7961C40.643 15.1273 40.4943 15.0847 40.3498 14.9997C40.2137 14.9147 40.1032 14.8085 40.0182 14.681C39.9757 14.6045 39.929 14.5364 39.878 14.4769C39.844 14.4429 39.81 14.4132 39.776 14.3877C39.742 14.3537 39.7037 14.3197 39.6612 14.2857C39.4827 14.1667 39.2914 14.1157 39.0874 14.1327C38.8834 14.1412 38.6964 14.1964 38.5263 14.2984C38.3648 14.4004 38.2373 14.5407 38.1438 14.7192C38.0588 14.8977 38.046 15.0975 38.1055 15.3185C38.148 15.4885 38.2246 15.6288 38.3351 15.7393C38.4456 15.8413 38.5731 15.9306 38.7176 16.0071C38.8621 16.0836 39.0151 16.1474 39.1766 16.1984C39.3382 16.2494 39.4912 16.3004 39.6357 16.3514C39.8057 16.4109 39.9715 16.4746 40.133 16.5426C40.303 16.6021 40.4645 16.6744 40.6175 16.7594C40.7706 16.8444 40.9193 16.9379 41.0638 17.0399C41.2083 17.142 41.3401 17.261 41.4591 17.397Z" fill="#171717"/>
</svg>
